# xmcd CD database file
# Copyright (C) 1993-1998 Ti Kan
#
# Track frame offsets:
#  150
#  12796
#  25019
#  39332
#  48937
#  60974
#  74574
#  86334
#  98348
#  113625
#  124975
#  136815
#  151739
#  164963
#  174308
#
# Disc length: 2506 seconds
#
# Revision: 1
# Processed by: cddbd v1.4b41PL1 Copyright (c) Steve Scherf et al.
# Submitted via: CDWizzard Release:4.35
#
DISCID=af09c80f
DTITLE=Various Artist - Songs for Aussie Kids
DYEAR=1900
DGENRE=
TTITLE0=Home Around the Gum Trees
TTITLE1=Tie Me Kangaroo Down, Sport
TTITLE2=G'day G'day
TTITLE3=Skippy
TTITLE4=Morningtown Ride
TTITLE5=Waltzing Matilda
TTITLE6=Have You Ever Seen The Rock
TTITLE7=rip Rip Woodchip (live)
TTITLE8=Six White Boomers
TTITLE9=Kanga
TTITLE10=Old Man Emu
TTITLE11=Sadie, The Cleaning Lady
TTITLE12=Off on Holiday
TTITLE13=Little Fish
TTITLE14=Big Bad Bushranger
EXTD=
EXTT0=John Williamson
EXTT1=Rolf Harris
EXTT2=Slim Dusty
EXTT3=Eric Jupp
EXTT4=The seekers
EXTT5=Lionel Long
EXTT6=Ted Egan
EXTT7=Jim Haynes
EXTT8=Rolf Harris
EXTT9=Pixie
EXTT10=Kikkatinnalong
EXTT11=Johnny Farnham
EXTT12=Rob Fairbairn
EXTT13=John Broomhall
EXTT14=Bob Brown
PLAYORDER=
